<svg xmlns="http://www.w3.org/2000/svg" viewBox="0 0 500 500"><defs><style>.cls-1{fill:#1a82c0;}.cls-2{fill:none;}.cls-2,.cls-5{stroke:#fff;stroke-miterlimit:10;}.cls-3{opacity:0.48;}.cls-4{font-size:42px;font-family:OpenSans-Bold, Open Sans;font-weight:700;}.cls-4,.cls-5,.cls-6{fill:#fff;}</style></defs><g id="Layer_1" data-name="Layer 1"><rect class="cls-1" width="500" height="500" rx="24.48"/><rect class="cls-2" x="24.67" y="24.67" width="450.66" height="450.66"/></g><g id="Layer_2" data-name="Layer 2" class="cls-3"><line class="cls-2" x1="58.3" y1="15.73" x2="58.3" y2="484.27"/><line class="cls-2" x1="100.9" y1="15.73" x2="100.9" y2="484.27"/><line class="cls-2" x1="143.49" y1="15.73" x2="143.49" y2="484.27"/><line class="cls-2" x1="186.09" y1="15.73" x2="186.09" y2="484.27"/><line class="cls-2" x1="228.69" y1="15.73" x2="228.69" y2="484.27"/><line class="cls-2" x1="271.29" y1="15.73" x2="271.29" y2="484.27"/><line class="cls-2" x1="313.88" y1="15.73" x2="313.88" y2="484.27"/><line class="cls-2" x1="356.48" y1="15.73" x2="356.48" y2="484.27"/><line class="cls-2" x1="399.08" y1="15.73" x2="399.08" y2="484.27"/><line class="cls-2" x1="441.68" y1="15.73" x2="441.68" y2="484.27"/><line class="cls-2" x1="484.26" y1="58.31" x2="15.71" y2="58.31"/><line class="cls-2" x1="484.26" y1="100.91" x2="15.71" y2="100.91"/><line class="cls-2" x1="484.26" y1="143.51" x2="15.71" y2="143.51"/><line class="cls-2" x1="484.26" y1="186.1" x2="15.71" y2="186.1"/><line class="cls-2" x1="484.26" y1="228.7" x2="15.71" y2="228.7"/><line class="cls-2" x1="484.26" y1="271.3" x2="15.71" y2="271.3"/><line class="cls-2" x1="484.26" y1="313.9" x2="15.71" y2="313.9"/><line class="cls-2" x1="484.26" y1="356.49" x2="15.71" y2="356.49"/><line class="cls-2" x1="484.26" y1="399.09" x2="15.71" y2="399.09"/><line class="cls-2" x1="484.26" y1="441.69" x2="15.71" y2="441.69"/></g><g id="Art"><text class="cls-4" transform="translate(104.74 451.42)">OctoPipeline</text><path class="cls-5" d="M118.74,245.41c0-31.83-.08-63.66.09-95.49a18.22,18.22,0,0,0-4.08-11.9c-8.38-10.84-8.27-16.9.34-27.49a14.7,14.7,0,0,0,3.65-10c-.18-5.15.19-10.29-.48-15.46s2.88-8.66,6.77-11.42c9.44-6.71,20.45-9.66,31.49-12.09,42-9.27,84.59-9.94,127.24-5.83,18.72,1.8,37.29,5,55,11.72A55.16,55.16,0,0,1,349,72.51c6,3.85,9.77,8.57,8.54,16.42-1.14,7.19.73,13.53,6,19.2,5.48,5.85,5.4,14.29,0,20.52-4.81,5.57-6.28,11.46-6.25,18.68q.3,98.73.06,197.46a7.19,7.19,0,0,0,2,5.38,45,45,0,0,1,3.29,3.75c8,10.4,8.42,13.89.09,24.12-5.57,6.83-5.45,14.31-5.36,22.14.07,6.59,0,6.48-6.49,6.65-6.18.16-11.46-.69-17.12-4.51-9.91-6.67-22.09-8-33.75-9.82-31.41-4.89-63-5.45-94.67-3.4-18.15,1.17-36.17,3.14-53.65,8.31-5.89,1.74-12.39,2.78-16,9-1.17,2.05-3.69,1-5.58,1-11.25.1-11.63.05-11.37-11a25.73,25.73,0,0,0-6-17.84c-5.9-7.25-5.7-15.08.45-22.21,4.08-4.73,5.6-9.85,5.57-16C118.66,308.74,118.74,277.07,118.74,245.41Zm203.94,1.91c.44,9.69-3.16,12.63-13.45,11,.54,4.2,2.12,6.26,5.81,7.58,4.81,1.72,11.31-1.29,12.72-5.88,1.5-4.86-1.24-11.37-5.27-12.52,1.68-1.79,3.06-1,4,.69a25.57,25.57,0,0,1,2.32,5.5c2,7.17-1.45,13-8.31,14.49-6.51,1.4-12.44-3-13.43-10.05a18.9,18.9,0,0,0-1.18-4.78c-4.17-9.94,1.85-19.24,12.53-19.37a19.57,19.57,0,0,1,15.1,6.56c1.51,1.63,2.93,3.33,5.33,6.07,0-6.3,0-11.07,0-15.85,0-1.8.38-3.66-.53-5.39-2.87-5.46-15.25-10.81-21.3-9.15-6.44,1.77-12.7,3.92-17.88,8.44-1,.91-2.14,2.26-4.71,2,14.1-11.5,27.76-19.52,44.44-3.39,0-3.42,0-5.2,0-7,0-22.49.18-45,.06-67.46a18.58,18.58,0,0,1,5.38-13.45c7.06-7.58,6.58-16.42-1.31-23-2.93-2.46-4.46-5.17-4.07-9a61.14,61.14,0,0,0-.06-6.49c0-12.11-.58-12.91-12.16-17-.78-.28-1.59-.5-2.38-.74-22.65-6.89-46-8.82-69.5-9.68-24.14-.89-48.29-.3-72.28,2.92-13.35,1.8-26.62,4-39.24,9.13-5,2-8,4.85-7.09,10.81.6,4.08.42,8.29.53,12.44.14,5.67-.11,10.69-5.34,15-6.75,5.62-6.53,14.68-.38,21.28,3.91,4.19,5.38,8.82,5.34,14.48-.16,20.81-.05,41.63,0,62.45,0,1.28-.66,3.07.57,3.73,1.46.79,2.53-1,3.78-1.63,2.32-1.21,4.3-3.25,7.24-2.91-1.67,2.72-5,2.95-7.22,4.9-1.6,1.41-4.11,2.38-4.2,4.68-.26,6.25-.09,12.51-.09,20,2.4-2.61,3.91-4.3,5.47-5.94A20.72,20.72,0,0,1,158.94,234c8.74.58,15,8.3,13,16.28-.84,3.33-2.17,6.54-2.94,10-1.1,4.85-5.17,7.84-10.15,8.09s-10.37-2.93-12-7.24.09-10.19,4-13.27a15.31,15.31,0,0,0-3.09,10.25c.27,4.73,4.66,8.23,10.11,8.28s9-3,9.3-8.22c-9.48,2.06-11.62.74-14.16-9-.41-1.57-1-1.94-2.34-1.17,3.32-2.91,3.79-.53,4.36,2.22,1.3,6.28,6.51,8.61,11.46,5.11,2.75-1.94,4.5-4.84,3.85-8.15-.72-3.64-1.27-7.73-5.34-9.63-8.82-4.11-20.37-.94-24.77,7.7-5.58,10.94-6.07,21.43,6.59,31.67,9.42,7.62,23.64,3.22,29.77-2.26a10.47,10.47,0,0,0,1.91-2.88c.5-.9.6-2.14,2.23-2.17-1,9-8.21,10.69-16,13,9.81,1.57,16.37,6.26,22.11,12.31a12,12,0,0,1,3.36,8.6c0,8.77-6,17.89-14.72,19.78-10.2,2.2-19.57-.85-23.14-11.25-1.77-5.15.15-9.33,5.75-13,4.19-2.72,8.47-2.17,12.53,1.81-1.48.1-2.77.1-4,.3-4.24.69-6.81,4.53-7.09,10.68-.2,4.36,1.11,8,5.68,9.41,9.62,3,21.4-4.29,23.12-14.27a12.66,12.66,0,0,0-3.05-11.11c-2.94-3.4-6.91-5.1-10.43-7.57-14.22-10-39.65,5.94-38.47,21.33.56,7.44,0,14.87,0,22.31,0,7.16.2,14.32.45,21.47a8.8,8.8,0,0,1-3.08,7.49c-9.15,8-9.67,15.88-1.44,24.82a15.71,15.71,0,0,1,4.44,11.76c-.09,2.16-.21,4.32-.38,6.48-.2,2.66.3,3.9,3.25,2.23A56.87,56.87,0,0,1,153,401c19.57-5.29,39.58-7.2,59.72-8.27a432.57,432.57,0,0,1,82.27,3c14.93,2.06,29.86,4.53,43.88,12.52,0-2.86.19-5,0-7.09-.86-7.91,1.19-14.4,7.06-20.3,6.09-6.13,4.69-15.41-2.56-20.94-3.46-2.64-4.62-5.57-4.56-9.76.19-13.6.07-27.21,0-40.81a18.14,18.14,0,0,0-.47-4.42c-2.77-11-11.08-16.46-21-19.21s-17.78,2.64-24.45,9.26c-5.1,5.06-5.44,11.86-1.61,17.79a23.31,23.31,0,0,0,9.3,8.15c5.84,2.92,13.43.29,15.55-5.16,1.36-3.47.79-6.9-.7-10.18-1.75-3.87-5.24-4.94-9.77-4.77,4.11-3.28,6.41-4,9.08-3.27,4.64,1.33,9.07,6,9.44,10,.4,4.25-3.72,12.31-7.24,14.14-10.21,5.33-23.67.6-28.19-10-2.75-6.49-2.59-12.7,2.74-18s11.28-9.93,19.49-11.26c-9-1.91-15.15-6.29-15.23-16.19,5.3,11.63,16.78,18.11,26.52,14.11,9.09-3.74,18.61-12.29,16.14-25.55-1.88-10.15-6.13-16.16-14.87-18.56-8.1-2.22-14.92,1.46-16.92,9.12a9,9,0,0,0,6.4,11.25c4.05,1,6.75-1.41,8-7.17C321.23,248.46,321.42,247.52,322.68,247.32ZM355.07,93.13c-.26-12.3-.26-12.3-10.6-11.66-.49,0-1,0-1.49,0-.89.09-1.76.44-1.75,1.42,0,7.5-2.09,15.28,3.56,22,9.29,11,9.32,16.18.74,27.72A21.67,21.67,0,0,0,341,146q.12,96.21,0,192.43c0,6.48,1.53,11.75,6.2,16.6,6.72,7,7.23,13.21,1,20.31-5.4,6.12-7.08,12.82-7.06,20.43,0,10.55-1.18,8.31,8.58,8.86,4.55.26,5.92-1.27,5.38-5.58-1.21-9.75,1.26-18.16,8.11-25.64,5.36-5.86,3.06-15.95-4.19-20.33-3.05-1.84-4-4-4-7.26q.07-36.74.07-73.47c0-42.82.09-85.64-.27-128.45-.05-6.29,1-11.07,5.63-15.55,6.18-6,6.64-14.19.54-20C355.81,103.57,353.93,98.55,355.07,93.13ZM133.92,96.4c0-2.62,0-3.78,0-4.94-.08-11.13,1.54-8.84-9.08-9.25-3-.12-4.14.79-4,3.92.22,6.32,0,12.66.17,19a6.68,6.68,0,0,1-2.63,6c-9.19,7.46-9.85,15.54-1.92,24.35A16.86,16.86,0,0,1,121,147.63q-.18,99,.07,198a12.69,12.69,0,0,1-4.33,10.07c-6.76,6.29-7.92,14.67-2.16,20.88,5.35,5.76,7,12,6.49,19.53-.63,10.2-.17,10.32,9.89,9.33,2.07-.21,3.07-.88,3-3-.17-8.13.17-16.29-5.79-23.08-5.17-5.9-5.54-12.62-1.76-19.43a29.86,29.86,0,0,1,4.54-5.92,10.18,10.18,0,0,0,2.92-7.62c0-35.15.09-70.31.12-105.47q0-41.49,0-83c0-8.37-.79-16.31-6.77-23.29a14.71,14.71,0,0,1,.48-19.76C133.25,109,135.31,102.69,133.92,96.4ZM121.46,79.94c5.59-.34,9.9,1.47,13.74-1.43,5.44-4.11,11.68-6.3,18.13-8C169.46,66.2,186,64.24,202.57,63c33.51-2.54,66.89-1.68,100.09,3.63,11.48,1.84,23.23,3.61,33.17,10.07,5.56,3.61,10.83,2.26,17.43,2.66a24,24,0,0,0-8.19-6.63c-8.26-4.5-17.28-7-26.33-9.09-21.8-5.06-44-7.25-66.34-7.79-36.89-.89-73.57.8-109.21,11.68C135.58,69.83,128.21,72.75,121.46,79.94Zm35.63,197.83c-9.54-2-14.5-8.44-20.71-14.92,0,8.86-.13,16.62.08,24.37.06,2.09,1,4.29,3.63,1.49A43.54,43.54,0,0,1,157.09,277.77Zm162.7.18a45,45,0,0,1,15.62,10.95c2.08,2.32,3.12.5,3.16-1.16.19-7.87.08-15.73.08-23.49-3.11,2.82-6,5.24-8.66,7.92S323.55,276.12,319.79,278Zm-.3,31.3c2.12-3,4.14-6,2-9.66-1.8-3.14-4-4.58-7.49-4.6C318.36,299,319.17,303.94,319.49,309.25Zm-161.81,1.43c-2-6.61.73-11.31,4.19-16.16C151.93,297.19,151.63,305.4,157.68,310.68Z"/><path class="cls-5" d="M186.72,330.23c-24.67,5.76-28.47,5.65-38.29-1,1.27-.9,2.28.14,2.94.57,11.87,7.68,34,1.94,43.43-8.64,6.36-7.13,8.95-14,6.47-23.51-1.5-5.72-2.23-12-.17-18.09a5.54,5.54,0,0,0-.23-4.29c-4.37-10-.18-22.29,9.85-27.89a27,27,0,0,0-8.57,12.78c-1.68,4.82-2.68,9.82.47,14.34,1.72,2.48.43,4.47,0,6.62-.73,3.68-.85,3.66,3.31,3.75-5.73,5.09-4.12,11.06-2.7,16.88,1.6,6.53.28,12.13-4.34,17-2.94,3.13-6.12,6.11-8.6,9.58-4.29,6-5.82,12.73-2.53,19.77,3.74,8,9.92,12.93,18.95,13.31,24.14,1,30.45-20.95,24.29-36.65-.34-.86-.69-1.71-1.48-3.67,6.73,7.83,6.83,24.46,1,31.88-7.51,9.57-22.84,13.68-32.84,8.27C189.21,356.64,180.71,347,186.72,330.23Z"/><path class="cls-5" d="M321.8,331.54c-10.62,5.28-20.92,2.63-31.31-1.72,3.35,15.32.07,25.31-9.81,31.06-8.12,4.71-21.29,2.92-28.63-4.34a46.82,46.82,0,0,0,13.75,4.59c10,1.61,18.44-2.69,23.25-12.31,3.91-7.82,1.87-16.77-5-23.51-7.89-7.75-12.87-16.54-8.83-28.11A11.53,11.53,0,0,0,275,289c-.28-.75-5.75-3.89.59-4.23a4,4,0,0,0,0-1.82c-1.49-3.92-.37-7.31.71-11.29,2.11-7.76-.84-15.05-6.19-21.06-1.4-1.58-3.09-2.85-3.85-5.46,8.17,5.79,12,13.38,12.31,22.83a4.44,4.44,0,0,1,.05,1.49c-4,11.56.67,23.9-3.23,35.5-1,3,.08,6.15,1.59,8.64,8.89,14.68,25.69,23.58,43,18.2A9.86,9.86,0,0,1,321.8,331.54Z"/><path class="cls-5" d="M233.07,276.72c3.06,5.59.5,10.35-1.43,15a20.28,20.28,0,0,0-2,8.15,14.82,14.82,0,0,1-2.66,8.9c-2.28,3.33-4.26,6.79.1,10.29-.5-.31-1-.59-1.49-.93a18.53,18.53,0,0,0-27.35,7.1c-2.45,4.84-.86,13.61,3.11,17.17,4.28,3.83,9.35,4.46,13.74,1.67,2.64-1.67,4.08-4.1,3.42-7.17-.58-2.72-2.79-4-5.47-4.37-1.06-.14-2.55.65-2.69-1.18a4,4,0,0,1,1.82-3.41c3.64-2.71,8.94-1.26,11.1,2.95,3.29,6.4-.26,15.31-7.07,17.77-8.52,3.06-17.09-1.51-19.78-10-5-15.8,9.65-25.54,20.76-26.39,2.06-.16,4.53,1.84,6.09-.38,1.89-2.68,4.4-5.42,4.5-8.76.18-6,2-11.44,4.38-16.74C233.56,283.3,232.82,280.19,233.07,276.72Zm-11.86,63.65c2.52-3.52,1.89-6.89-.24-9.77-1.61-2.16-4.18-1.72-7.58-.73C219.16,331.81,221.35,335.28,221.21,340.37Z"/><path class="cls-5" d="M145.41,217.22c3.42-5.41,11.57-11.59,20.27-6.81,11.71,4.11,21.85,10.43,24.8,24.53,3.77-4.37,9.27-5.27,12.75-9.2,1.83-2.06,2.55-3.23-1.27-3.92a34,34,0,0,1-13-4.7c-2.62-1.74-5-3.92-4.91-7.53,5.88,7.65,9.24,9.31,22.44,11.18,3.31-11-2.23-18.47-10.58-25,6.35,1.31,13.36,11,12.87,17.57-.21,2.83-.95,5.65.44,8.33.86,1.66-.5,1.69-1.32,2.45a103.56,103.56,0,0,1-9.86,7.49c-10.16,7.39-10.07,7.51-15.85,25.75.31-5.66,2.51-10.91,4.29-16.16,2.29-6.74,1.18-12.5-3.38-17.63-7.06-7.94-14.08-12-25-11.68C154.09,215.09,148.6,217.6,145.41,217.22Z"/><path class="cls-5" d="M278.48,323.76c.46.07,1.12,0,1.33.23,3.29,4.14,2.69,14.49-1.1,19.86-3.36,4.76-10.82,6.92-16.6,4.81-6.83-2.49-10.33-12.15-6.57-18.36,2-3.25,4.78-4.3,8.55-3.08,2,.65,3.35,1.76,3.48,3.72.17,2.66-2.16,1.26-3.33,1.65-3.64,1.18-5.37,4.27-4.16,7.77,1.35,3.92,7,6.46,11.23,5,6.53-2.23,10.23-9.24,8.85-17.05a32.64,32.64,0,0,0-1.56-4.69Zm-20.3,17.81c-1.62-6.39,1.4-9.41,6.07-11.95-3.35-.63-6-1.15-7.3,1.73S254.57,337.48,258.18,341.57Z"/><path class="cls-5" d="M274.21,94.89h0c-5.45-3.29-11.86-4.49-18-5.1-19.64-2-39-1.9-57.62,6.79-19.44,9.09-35.34,21-38.2,44.05-2.11,16.9-.23,33,13.38,45.45,3.64,3.34,7,7,10.51,10.44,2.7-1.63.51-2.78-.55-3.63a99.34,99.34,0,0,1-10.65-10.47c-12.16-13.23-15.79-39.26-7.33-55.2,12.47-23.49,34.15-32.87,58.8-35.84,14.26-1.72,33.24.2,47.4,3.44,1,.23,1.88.44,2.38.52a5.52,5.52,0,0,0,.91.9,16.32,16.32,0,0,0,3.15,1.65c18.66,8.73,33.3,21,35.88,42.94,1.9,16.15.08,31.55-12.58,43.79-2.85,2.75-5.46,5.8-8.56,8.3-2,1.58-.8,1,.45,2.58-.4-1.42-.14,0,.77-.81,13.76-11.7,21.95-25.56,22.26-44.63C317,121.84,297,101.17,274.21,94.89Z"/><path class="cls-5" d="M284.5,233.34c-2.89-1.92-5.77-3.88-8.54-6-1.27-1-2.86-2.14-2.42-4,.39-1.68,2.25-.91,3.42-1.34,2.33-.85,4.71-1.55,7-2.44,9.1-3.52,12.66-11.11,9.78-20.73.65,7.34-.12,14.21-7.51,18a45.28,45.28,0,0,1-12.81,4c-1.19.22-2.34.84-2.43-1.11-.26-6-.82-12,4-16.84,2.45-2.43,4.64-5.11,6.95-7.68-7.35,5.09-12.63,10.8-12.58,21,0,6.93,2.18,10.64,7.7,13.82,7,4.06,13,9.08,14.57,17.91.52,2.95,1.15,6.26,3.65,8.55-1.14-4-2.46-7.88-3.39-11.9A17.48,17.48,0,0,0,284.5,233.34Z"/><path class="cls-5" d="M278.6,323.64c-2.15-2.3-3.94-5-6.79-6.55-7.14-4-14.08-5.89-20.53,2.33,5.29-4.76.88-8.23-.32-12.24-2.48-8.33-4.37-16.86-6.17-25.38-.54-2.55.42-5.27,1.68-7.82-2.23,7.23.5,13.53,3.16,20,2,4.84.25,10.57,3.78,15.29,1.76,2.37,2.87,3.69,6.18,3.27,8.07-1,17,4.56,18.9,11.25Z"/><path class="cls-5" d="M248.88,321.51c-4.23,8.75-4.27,17.83-2.38,27.11C243,339.2,242.63,330.05,248.88,321.51Z"/><path class="cls-5" d="M199.53,204.82c2.33,3.83.26,7.89,2.72,12-4.63-1.79-4.85-5.25-6-8.85l2.76,3.13C200.9,209.25,198.32,207.06,199.53,204.82Z"/><path class="cls-5" d="M280.47,209.91c-.16,2.66-1.28,4.89-4.86,7.27,2-4.45.29-8.34,2.26-11.83C280.07,206.29,275.21,210.67,280.47,209.91Z"/><path class="cls-6" d="M197.36,196.66a38.85,38.85,0,0,0-10.58-1.85,8.26,8.26,0,0,0-2.05.12"/><path class="cls-6" d="M197.49,196.17a41.1,41.1,0,0,0-6.5-1.49,20.47,20.47,0,0,0-6.39-.24c-.63.12-.37,1.09.26,1a11.84,11.84,0,0,1,3.09,0c1.08.07,2.17.18,3.24.35a39.24,39.24,0,0,1,6,1.42c.61.19.88-.77.26-1Z"/><path class="cls-6" d="M184.18,211.19a34.78,34.78,0,0,1-.65-5.28,9.4,9.4,0,0,1,0-1.76c.06-.52.2-1,.3-1.55.46-2.44,0-5.07.95-7.37Z"/><path class="cls-6" d="M184.66,211.06a34.7,34.7,0,0,1-.57-4.18c-.05-.65-.09-1.31-.08-2a13.11,13.11,0,0,1,.32-2.07c.49-2.48,0-5.1,1-7.48l-1-.14-.56,14-.08,2c0,.64,1,.64,1,0l.57-14,.07-2c0-.6-.78-.62-1-.13-1,2.52-.5,5.31-1.07,7.92a21,21,0,0,0,.43,8.3C183.82,212,184.78,211.69,184.66,211.06Z"/><path class="cls-6" d="M279.88,197.3a12,12,0,0,1,6.57-2.85c2.4-.37,4.85-.41,7.23-.9"/><path class="cls-6" d="M280.23,197.66c3.6-3.42,9.08-2.73,13.58-3.63.63-.13.36-1.09-.27-1-4.73.95-10.23.3-14,3.89-.46.44.24,1.15.71.71Z"/><path class="cls-6" d="M293.56,195.49a18.31,18.31,0,0,1,1.09,6.37,12.88,12.88,0,0,1-.09,2.24,16.37,16.37,0,0,1-.42,1.87l-1,3.72"/><path class="cls-6" d="M293.07,195.63a18.64,18.64,0,0,1,1.09,6.79c0,2.43-.88,4.81-1.51,7.13a.5.5,0,0,0,1,.27c.66-2.42,1.56-4.87,1.55-7.4a19.68,19.68,0,0,0-1.12-7.06c-.23-.59-1.2-.33-1,.27Z"/><path class="cls-6" d="M149.53,329.44a62.68,62.68,0,0,1-10.64-10.08,13.41,13.41,0,0,1-3.32-6.07"/><path class="cls-6" d="M149.79,329a60.61,60.61,0,0,1-8-7.16c-2.32-2.45-5.07-5.25-5.71-8.69-.12-.63-1.08-.36-1,.27.66,3.54,3.44,6.43,5.82,9a63.35,63.35,0,0,0,8.38,7.48c.52.38,1-.48.51-.87Z"/><path class="cls-6" d="M255.37,358.79a2.91,2.91,0,0,1-1.47-.83,29.42,29.42,0,0,1-9.17-15.18"/><path class="cls-6" d="M255.51,358.31a4.52,4.52,0,0,1-2-1.38c-.57-.53-1.11-1.09-1.63-1.66a29,29,0,0,1-6.67-12.62c-.15-.63-1.12-.36-1,.26a30.14,30.14,0,0,0,7.14,13.29c.59.64,1.22,1.26,1.87,1.85a4.27,4.27,0,0,0,2,1.22c.63.13.9-.84.27-1Z"/><path class="cls-6" d="M225.92,317.93a17.62,17.62,0,0,1,2,1.86l1.29,1.32a7.6,7.6,0,0,1,.75.85,7.38,7.38,0,0,1,.68,1.23l.76,1.6"/><path class="cls-6" d="M225.67,318.36a30.28,30.28,0,0,1,3.09,3A6.59,6.59,0,0,1,230,323c.34.68.66,1.38,1,2.08s1.13.07.86-.51-.66-1.43-1-2.13a7.34,7.34,0,0,0-1.34-1.75,31.77,31.77,0,0,0-3.3-3.16.5.5,0,1,0-.5.86Z"/><path class="cls-6" d="M247.92,323.44c1.64-2.07,3.36-4.07,5.15-6a3.62,3.62,0,0,1,2.12-1.38"/><path class="cls-6" d="M248.27,323.79q1.68-2.1,3.45-4.12c.58-.65,1.15-1.3,1.74-1.94a3.21,3.21,0,0,1,1.73-1.19.5.5,0,0,0,0-1,3.49,3.49,0,0,0-2,1.08c-.65.63-1.25,1.34-1.85,2q-1.94,2.17-3.73,4.45a.5.5,0,0,0,0,.7.49.49,0,0,0,.7,0Z"/><path class="cls-6" d="M278.15,322.66a.46.46,0,0,1,.2.14A8,8,0,0,1,280,325"/><path class="cls-6" d="M278,323.14l-.06,0s0,0,0,0,0,0,0,0l.13.12.25.27.24.27.11.14,0,0c0-.05,0,0,0,0a8.29,8.29,0,0,1,.77,1.24.5.5,0,0,0,.68.18.53.53,0,0,0,.18-.69,8.76,8.76,0,0,0-.84-1.33,6.87,6.87,0,0,0-.55-.66,2.07,2.07,0,0,0-.73-.58.49.49,0,0,0-.61.34.52.52,0,0,0,.35.62Z"/><path class="cls-6" d="M277.41,322"/><path class="cls-6" d="M277.41,322.53a.5.5,0,0,0,0-1,.5.5,0,0,0,0,1Z"/><path class="cls-6" d="M277.54,322.12a3.72,3.72,0,0,0,.4.73"/><path class="cls-6" d="M277.06,322.25a4.57,4.57,0,0,0,.44.85.58.58,0,0,0,.13.14.56.56,0,0,0,.17.09.46.46,0,0,0,.2,0,.6.6,0,0,0,.19-.06.53.53,0,0,0,.23-.3.53.53,0,0,0-.05-.39,3.85,3.85,0,0,1-.39-.69l0,.12v0a.56.56,0,0,0-.09-.17.41.41,0,0,0-.14-.12.33.33,0,0,0-.19-.06.28.28,0,0,0-.2,0,.44.44,0,0,0-.29.23l-.05.11a.42.42,0,0,0,0,.27Z"/><path class="cls-6" d="M319.33,332.09c.8-.18,1.57-.44,2.34-.69,4.63-1.55,9.45-3.21,12.89-6.69a23.3,23.3,0,0,1,1.94-1.91,9.43,9.43,0,0,0,1.28-1.07,5,5,0,0,0,.67-1.08l1.24-2.44"/><path class="cls-6" d="M319.47,332.58a51.48,51.48,0,0,0,6.39-2.13,32.69,32.69,0,0,0,5.54-2.63,19.93,19.93,0,0,0,2.47-1.79c.79-.67,1.47-1.45,2.2-2.18a19.21,19.21,0,0,0,2.28-2,25,25,0,0,0,1.77-3.36c.29-.57-.57-1.08-.86-.51a31.09,31.09,0,0,1-1.66,3.19,16.46,16.46,0,0,1-2.23,2c-.74.73-1.41,1.5-2.21,2.17a18.86,18.86,0,0,1-2.43,1.74,32.64,32.64,0,0,1-5.42,2.54,50.76,50.76,0,0,1-6.11,2c-.62.15-.36,1.11.27,1Z"/><path class="cls-6" d="M232.86,277.79q4.41-14.78,8.23-29.71c2.09,7.79.08,16.26,2.34,24,.74,2.51,1.92,5,1.64,7.61"/><path class="cls-6" d="M233.34,277.92q4.41-14.76,8.24-29.71h-1c2.12,8.07,0,16.64,2.54,24.65.7,2.23,1.64,4.45,1.42,6.83-.06.64.94.64,1,0a14.47,14.47,0,0,0-1.07-5.91,31.28,31.28,0,0,1-1.46-6.26c-.49-4.18-.25-8.39-.47-12.58a34.44,34.44,0,0,0-1-7,.51.51,0,0,0-1,0q-3.81,14.94-8.23,29.72a.5.5,0,0,0,1,.26Z"/><path class="cls-6" d="M285.21,234.15a47.44,47.44,0,0,1,18.37-13.1"/><path class="cls-6" d="M285.57,234.5a47,47,0,0,1,18.15-13c.59-.24.33-1.21-.27-1a48.11,48.11,0,0,0-18.59,13.22c-.42.49.29,1.2.71.71Z"/><path class="cls-6" d="M336.72,267.12a39.79,39.79,0,0,0,1.68-3.63"/><path class="cls-6" d="M337.15,267.37c.64-1.22,1.21-2.47,1.73-3.74a.51.51,0,0,0-.35-.62.52.52,0,0,0-.62.35,37.17,37.17,0,0,1-1.62,3.51.5.5,0,1,0,.86.5Z"/><path class="cls-6" d="M156.31,311.66c.84-1.83.67-3.94,1-5.91a19.57,19.57,0,0,1,.52-2l1-3.31a28.88,28.88,0,0,0-3.67,3.83,6.53,6.53,0,0,0-1.17,1.94,2.52,2.52,0,0,0,.19,2.18"/><path class="cls-6" d="M158,312.67a12,12,0,0,0,.91-3.43c.06-.45.1-.9.14-1.36l.06-.58c0-.07.09-.84,0-.44a41.58,41.58,0,0,1,1.57-5.89,2,2,0,0,0-.92-2.26,2.11,2.11,0,0,0-2.43.32,30.5,30.5,0,0,0-3.9,4.13c-1.39,1.79-2.34,4.11-1,6.24a2,2,0,1,0,3.45-2c-.24-.4,0,.31-.07-.15s-.07.29,0-.16-.15.27,0-.16c0-.05.19-.49.09-.28s.17-.29.21-.35l.26-.39c.34-.51-.24.27.14-.2l.39-.48a30.59,30.59,0,0,1,3.28-3.36l-3.34-1.94a46.87,46.87,0,0,0-1.54,5.69c-.16,1-.23,2-.34,3.06,0,0-.09.65,0,.24,0,.26-.08.51-.13.76s-.09.38-.14.56-.28.76-.14.43a2,2,0,0,0,.72,2.73,2,2,0,0,0,2.74-.71Z"/><path class="cls-6" d="M317.92,299.39a14,14,0,0,1,3.61,6.24,3.23,3.23,0,0,1,.16,1,4,4,0,0,1-.35,1.39l-.5,1.3c-.1.28-.25.6-.54.69-1-2-.37-4.44-1-6.59"/><path class="cls-6" d="M316.5,300.81c.33.33.63.68.93,1,.15.18.15.18,0,0l.21.28q.21.28.39.57c.22.34.43.69.62,1.05l.31.62c0,.11.1.21.14.32h0q.25.65.45,1.32c.05.18.1.36.14.55,0-.21,0-.19,0,.05s0,.24,0,0c-.14.49-.32.95-.5,1.41a6.77,6.77,0,0,1-.28.75q.18-.4,0-.12c.53-.4.64-.53.34-.39L322,309c-.15-.34,0,.13,0-.09s-.07-.22-.1-.33-.11-.5-.16-.76c.08.42,0,0,0-.08s0-.29,0-.44l0-.8a16.25,16.25,0,0,0-.41-3.61,2,2,0,0,0-3.85,1.07c.07.28.13.57.18.86-.05-.29,0-.1,0,.08l0,.44c0,.57,0,1.13.07,1.7a10.3,10.3,0,0,0,.89,4,2.06,2.06,0,0,0,2.74.72,3,3,0,0,0,1.44-1.83c.22-.56.45-1.13.65-1.7a6,6,0,0,0-.25-4.07,16.4,16.4,0,0,0-3.82-6.13,2,2,0,1,0-2.83,2.83Z"/></g></svg>